<?xml version="1.0" encoding="utf-8"?>
<!-- Generator: Adobe Illustrator 23.0.1, SVG Export Plug-In . SVG Version: 6.00 Build 0)  -->
<svg version="1.1" id="Layer_1" xmlns="http://www.w3.org/2000/svg" xmlns:xlink="http://www.w3.org/1999/xlink" x="0px" y="0px"
	 viewBox="0 0 206.55 42.38" style="enable-background:new 0 0 206.55 42.38;" xml:space="preserve">
<style type="text/css">
	.st0{fill:#FFFFFF;}
</style>
<g>
	<path class="st0" d="M16.1,35.08H1.48v-2.9l6.9-7.35c0.95-1.04,1.65-1.94,2.1-2.71s0.68-1.5,0.68-2.2c0-0.95-0.24-1.69-0.72-2.23
		s-1.16-0.81-2.05-0.81c-0.96,0-1.71,0.33-2.26,0.99s-0.83,1.53-0.83,2.6H1.06c0-1.3,0.31-2.49,0.93-3.56s1.5-1.92,2.63-2.53
		s2.42-0.92,3.85-0.92c2.2,0,3.9,0.53,5.12,1.58s1.82,2.54,1.82,4.47c0,1.05-0.27,2.13-0.82,3.22s-1.48,2.37-2.81,3.82l-4.85,5.11
		h9.17V35.08z"/>
	<path class="st0" d="M27.46,30.7c0-0.52-0.26-0.93-0.77-1.22s-1.34-0.56-2.47-0.8c-3.77-0.79-5.65-2.39-5.65-4.8
		c0-1.41,0.58-2.58,1.75-3.52s2.69-1.41,4.58-1.41c2.01,0,3.62,0.47,4.83,1.42s1.81,2.18,1.81,3.69H27.3c0-0.61-0.2-1.11-0.59-1.5
		s-1-0.59-1.83-0.59c-0.71,0-1.26,0.16-1.66,0.48s-0.59,0.73-0.59,1.23c0,0.47,0.22,0.85,0.67,1.14s1.19,0.54,2.25,0.75
		s1.94,0.45,2.67,0.71c2.24,0.82,3.35,2.24,3.35,4.26c0,1.45-0.62,2.61-1.86,3.51s-2.84,1.34-4.8,1.34c-1.33,0-2.51-0.24-3.54-0.71
		s-1.84-1.12-2.42-1.95c-0.59-0.83-0.88-1.72-0.88-2.67h4.01c0.04,0.75,0.32,1.33,0.83,1.73c0.52,0.4,1.21,0.6,2.08,0.6
		c0.81,0,1.42-0.15,1.84-0.46C27.25,31.61,27.46,31.2,27.46,30.7z"/>
	<path class="st0" d="M40.33,23.97L43,19.23h4.53L43.01,27l4.7,8.09h-4.54l-2.83-4.98l-2.81,4.98h-4.56l4.7-8.09l-4.5-7.76h4.54
		L40.33,23.97z"/>
	<path class="st0" d="M55.86,31.96c0.78,0,1.42-0.21,1.9-0.64s0.74-1,0.76-1.71h3.97c-0.01,1.07-0.3,2.06-0.88,2.95
		c-0.58,0.89-1.36,1.59-2.37,2.08s-2.11,0.74-3.32,0.74c-2.27,0-4.05-0.72-5.36-2.16c-1.31-1.44-1.96-3.43-1.96-5.97v-0.28
		c0-2.44,0.65-4.39,1.95-5.84s3.08-2.18,5.35-2.18c1.98,0,3.57,0.56,4.77,1.69s1.8,2.63,1.82,4.5h-3.97
		c-0.02-0.82-0.27-1.49-0.76-2.01c-0.49-0.52-1.13-0.77-1.93-0.77c-0.99,0-1.73,0.36-2.23,1.08c-0.5,0.72-0.75,1.89-0.75,3.5v0.44
		c0,1.63,0.25,2.81,0.75,3.52S54.84,31.96,55.86,31.96z"/>
	<path class="st0" d="M67.8,33.56h10.53v1.52H65.98V13.76h1.82V33.56z"/>
	<path class="st0" d="M89.88,35.08c-0.18-0.5-0.29-1.24-0.34-2.21c-0.62,0.8-1.4,1.42-2.35,1.85s-1.96,0.65-3.02,0.65
		c-1.52,0-2.76-0.42-3.7-1.27s-1.41-1.92-1.41-3.22c0-1.54,0.64-2.76,1.93-3.66s3.07-1.35,5.37-1.35h3.18v-1.8
		c0-1.13-0.35-2.02-1.05-2.67s-1.72-0.97-3.05-0.97c-1.22,0-2.23,0.31-3.03,0.94s-1.2,1.38-1.2,2.26l-1.76-0.01
		c0-1.26,0.59-2.35,1.76-3.27s2.61-1.38,4.32-1.38c1.77,0,3.16,0.44,4.18,1.33s1.55,2.12,1.57,3.7v7.5c0,1.53,0.16,2.68,0.48,3.44
		v0.18H89.88z M84.37,33.82c1.17,0,2.22-0.28,3.14-0.85s1.59-1.32,2.01-2.27v-3.49H86.4c-1.75,0.02-3.12,0.34-4.1,0.96
		s-1.48,1.47-1.48,2.56c0,0.89,0.33,1.63,0.99,2.21S83.32,33.82,84.37,33.82z"/>
	<path class="st0" d="M97.02,19.23l0.06,2.71c0.6-0.98,1.34-1.72,2.23-2.23s1.87-0.77,2.94-0.77c1.7,0,2.96,0.48,3.79,1.44
		s1.25,2.39,1.26,4.31v10.4h-1.74V24.67c-0.01-1.42-0.31-2.47-0.9-3.16s-1.54-1.04-2.83-1.04c-1.08,0-2.04,0.34-2.88,1.02
		s-1.45,1.59-1.85,2.75v10.85h-1.74V19.23H97.02z"/>
	<path class="st0" d="M110.52,27.01c0-2.46,0.55-4.42,1.65-5.88c1.1-1.46,2.59-2.19,4.47-2.19c2.14,0,3.77,0.84,4.89,2.53v-8.89
		h1.74v22.5h-1.64l-0.07-2.11c-1.12,1.6-2.77,2.4-4.95,2.4c-1.83,0-3.3-0.73-4.42-2.2c-1.12-1.47-1.68-3.45-1.68-5.95V27.01z
		 M112.3,27.32c0,2.02,0.41,3.62,1.22,4.78c0.81,1.17,1.95,1.75,3.43,1.75c2.16,0,3.69-0.95,4.6-2.86v-7.44
		c-0.91-2.06-2.43-3.09-4.57-3.09c-1.47,0-2.62,0.58-3.44,1.74S112.3,25.07,112.3,27.32z"/>
	<path class="st0" d="M127.19,14.66c0-0.33,0.11-0.61,0.32-0.84s0.51-0.34,0.88-0.34s0.67,0.11,0.89,0.34
		c0.22,0.23,0.33,0.51,0.33,0.84s-0.11,0.61-0.33,0.83c-0.22,0.22-0.51,0.33-0.89,0.33s-0.66-0.11-0.88-0.33
		C127.3,15.26,127.19,14.99,127.19,14.66z M129.26,35.08h-1.76V19.23h1.76V35.08z"/>
	<path class="st0" d="M135.09,19.23l0.06,2.71c0.6-0.98,1.34-1.72,2.23-2.23s1.87-0.77,2.94-0.77c1.7,0,2.96,0.48,3.79,1.44
		s1.25,2.39,1.26,4.31v10.4h-1.74V24.67c-0.01-1.42-0.31-2.47-0.9-3.16s-1.54-1.04-2.83-1.04c-1.08,0-2.04,0.34-2.88,1.02
		c-0.83,0.68-1.45,1.59-1.85,2.75v10.85h-1.74V19.23H135.09z"/>
	<path class="st0" d="M148.6,27.01c0-2.48,0.55-4.45,1.65-5.9c1.1-1.45,2.59-2.18,4.47-2.18c2.16,0,3.8,0.86,4.92,2.58l0.09-2.29
		h1.64v15.53c0,2.04-0.57,3.66-1.71,4.85s-2.69,1.79-4.64,1.79c-1.1,0-2.16-0.25-3.16-0.74c-1-0.49-1.79-1.15-2.37-1.97l0.98-1.05
		c1.24,1.52,2.71,2.29,4.42,2.29c1.46,0,2.61-0.43,3.43-1.3s1.25-2.06,1.27-3.6v-1.99c-1.12,1.56-2.76,2.34-4.91,2.34
		c-1.84,0-3.31-0.73-4.42-2.2c-1.11-1.46-1.67-3.44-1.67-5.93V27.01z M150.37,27.32c0,2.02,0.41,3.62,1.22,4.78
		c0.81,1.17,1.95,1.75,3.43,1.75c2.16,0,3.69-0.97,4.58-2.9v-7.37c-0.41-1.02-1-1.79-1.77-2.32s-1.7-0.8-2.78-0.8
		c-1.47,0-2.62,0.58-3.44,1.74S150.37,25.07,150.37,27.32z"/>
	<path class="st0" d="M174.83,31.06c0-0.87-0.35-1.57-1.05-2.09c-0.7-0.53-1.75-0.94-3.16-1.24s-2.5-0.64-3.27-1.03
		c-0.78-0.39-1.35-0.86-1.73-1.41s-0.56-1.23-0.56-2.02c0-1.25,0.52-2.28,1.57-3.1s2.38-1.22,4.01-1.22c1.77,0,3.19,0.44,4.26,1.31
		c1.07,0.87,1.6,2.01,1.6,3.42h-1.76c0-0.93-0.39-1.7-1.16-2.31c-0.78-0.62-1.76-0.92-2.94-0.92c-1.15,0-2.08,0.26-2.78,0.77
		c-0.7,0.51-1.05,1.18-1.05,2c0,0.79,0.29,1.4,0.87,1.84c0.58,0.43,1.64,0.83,3.18,1.19c1.54,0.36,2.69,0.75,3.46,1.16
		s1.34,0.9,1.71,1.48s0.56,1.27,0.56,2.09c0,1.34-0.54,2.41-1.62,3.21s-2.49,1.2-4.23,1.2c-1.85,0-3.34-0.45-4.49-1.34
		c-1.15-0.89-1.72-2.02-1.72-3.39h1.76c0.07,1.03,0.5,1.82,1.3,2.4s1.85,0.86,3.16,0.86c1.22,0,2.21-0.27,2.96-0.81
		S174.83,31.88,174.83,31.06z"/>
</g>
<g>
	<g>
		<g>
			<path id="SVGID_1_" class="st0" d="M183.01,23.12V8.67c0-4.04,3.41-7.49,7.44-7.49h14.49v14.8c0,4.04-3.14,7.13-7.18,7.13H183.01
				z"/>
		</g>
	</g>
</g>
</svg>
