<?xml version="1.0" encoding="utf-8"?>
<!-- Generator: Adobe Illustrator 24.0.2, SVG Export Plug-In . SVG Version: 6.00 Build 0)  -->
<svg version="1.1" id="Layer_1" xmlns="http://www.w3.org/2000/svg" xmlns:xlink="http://www.w3.org/1999/xlink" x="0px" y="0px"
	 viewBox="0 0 428.5 106.6" style="enable-background:new 0 0 428.5 106.6;" xml:space="preserve">
<style type="text/css">
	.st0{fill:#65345C;}
	.st1{fill:#FFFFFF;}
	.st2{fill:none;stroke:#FFFFFF;stroke-width:1.5;stroke-miterlimit:10;}
	.st3{fill:none;stroke:#FFFFFF;stroke-width:1.5;stroke-linecap:round;stroke-miterlimit:10;}
</style>
<g>
	<path class="st0" d="M39.5,50.7c1.4,1.9,2.2,4.2,2.2,7c0,3.9-1.5,6.9-4.6,9c-3,2.1-7.5,3.2-13.3,3.2H0.8V25.3h21.8
		c5.4,0,9.6,1,12.5,3.1c2.9,2.1,4.4,4.9,4.4,8.5c0,2.2-0.5,4.1-1.6,5.8c-1,1.7-2.5,3-4.4,4C36.1,47.5,38.1,48.8,39.5,50.7z M11,33
		v10.5h10.3c2.5,0,4.5-0.4,5.8-1.3c1.3-0.9,2-2.2,2-4c0-1.7-0.7-3-2-3.9c-1.3-0.9-3.3-1.3-5.8-1.3H11z M29.2,60.8
		c1.4-0.9,2.1-2.3,2.1-4.1c0-3.7-2.7-5.5-8.2-5.5H11v11h12C25.8,62.1,27.8,61.6,29.2,60.8z"/>
	<path class="st0" d="M55.4,68.1c-2.9-1.5-5.1-3.6-6.7-6.3c-1.6-2.7-2.4-5.7-2.4-9.1s0.8-6.4,2.4-9.1c1.6-2.7,3.9-4.8,6.7-6.3
		c2.9-1.5,6.1-2.3,9.7-2.3s6.8,0.8,9.7,2.3c2.8,1.5,5.1,3.6,6.7,6.3c1.6,2.7,2.4,5.7,2.4,9.1s-0.8,6.4-2.4,9.1
		c-1.6,2.7-3.8,4.8-6.7,6.3c-2.8,1.5-6.1,2.3-9.7,2.3S58.3,69.6,55.4,68.1z M71.4,59.6c1.6-1.7,2.5-4,2.5-6.9s-0.8-5.2-2.5-6.9
		s-3.7-2.6-6.3-2.6c-2.5,0-4.7,0.9-6.3,2.6s-2.5,4-2.5,6.9s0.8,5.2,2.5,6.9s3.8,2.6,6.3,2.6C67.7,62.2,69.8,61.4,71.4,59.6z"/>
	<path class="st0" d="M97.2,68.1c-2.9-1.5-5.1-3.6-6.7-6.3c-1.6-2.7-2.4-5.7-2.4-9.1s0.8-6.4,2.4-9.1c1.6-2.7,3.9-4.8,6.7-6.3
		c2.9-1.5,6.1-2.3,9.7-2.3s6.8,0.8,9.7,2.3c2.8,1.5,5.1,3.6,6.7,6.3c1.6,2.7,2.4,5.7,2.4,9.1s-0.8,6.4-2.4,9.1
		c-1.6,2.7-3.8,4.8-6.7,6.3c-2.8,1.5-6.1,2.3-9.7,2.3S100,69.6,97.2,68.1z M113.2,59.6c1.6-1.7,2.5-4,2.5-6.9s-0.8-5.2-2.5-6.9
		s-3.7-2.6-6.3-2.6c-2.5,0-4.7,0.9-6.3,2.6s-2.5,4-2.5,6.9s0.8,5.2,2.5,6.9s3.8,2.6,6.3,2.6C109.4,62.2,111.5,61.4,113.2,59.6z"/>
	<path class="st0" d="M153,68.2c-1,0.7-2.2,1.3-3.6,1.6c-1.4,0.4-2.9,0.5-4.4,0.5c-4.1,0-7.3-1-9.5-3.1c-2.2-2.1-3.3-5.1-3.3-9.2V28
		h9.9v8.3h8.5V44h-8.5v14c0,1.4,0.4,2.6,1.1,3.3c0.7,0.8,1.8,1.2,3.1,1.2c1.5,0,2.9-0.4,4.1-1.3L153,68.2z"/>
	<path class="st0" d="M161.7,69.3c-2.7-0.7-4.9-1.6-6.5-2.6l3.3-7.1c1.5,1,3.4,1.8,5.5,2.4c2.2,0.6,4.3,0.9,6.4,0.9
		c4.2,0,6.3-1,6.3-3.1c0-1-0.6-1.7-1.7-2.1s-2.9-0.8-5.3-1.1c-2.8-0.4-5.1-0.9-6.9-1.5c-1.8-0.6-3.4-1.5-4.7-2.9c-1.3-1.4-2-3.4-2-6
		c0-2.2,0.6-4.1,1.9-5.8c1.3-1.7,3.1-3,5.5-3.9s5.2-1.4,8.5-1.4c2.4,0,4.8,0.3,7.2,0.8s4.4,1.3,6,2.2l-3.3,7.1
		c-3-1.7-6.3-2.5-9.9-2.5c-2.1,0-3.7,0.3-4.8,0.9c-1.1,0.6-1.6,1.4-1.6,2.3c0,1.1,0.6,1.8,1.7,2.2c1.1,0.4,3,0.8,5.5,1.2
		c2.8,0.5,5.1,1,6.9,1.5c1.8,0.5,3.3,1.5,4.7,2.9c1.3,1.4,2,3.4,2,5.9c0,2.1-0.6,4-1.9,5.7s-3.1,2.9-5.6,3.9
		c-2.4,0.9-5.3,1.4-8.7,1.4C167.2,70.4,164.5,70,161.7,69.3z"/>
	<path class="st0" d="M213.1,68.2c-1,0.7-2.2,1.3-3.6,1.6c-1.4,0.4-2.9,0.5-4.4,0.5c-4.1,0-7.3-1-9.5-3.1c-2.2-2.1-3.3-5.1-3.3-9.2
		V28h9.9v8.3h8.5V44h-8.5v14c0,1.4,0.4,2.6,1.1,3.3c0.7,0.8,1.8,1.2,3.1,1.2c1.5,0,2.9-0.4,4.1-1.3L213.1,68.2z"/>
	<path class="st0" d="M233,36.3c2-0.8,4.3-1.3,7-1.3v9.2c-1.1-0.1-1.8-0.1-2.2-0.1c-2.8,0-5.1,0.8-6.7,2.4c-1.6,1.6-2.4,4-2.4,7.2
		v16.2h-9.9V35.6h9.5v4.5C229.3,38.4,230.9,37.2,233,36.3z"/>
	<path class="st0" d="M280.4,35.6v34.3h-9.5v-4c-2.5,3-6,4.5-10.7,4.5c-3.2,0-6.2-0.7-8.8-2.2c-2.6-1.4-4.7-3.5-6.1-6.2
		c-1.5-2.7-2.2-5.8-2.2-9.3c0-3.5,0.7-6.6,2.2-9.3c1.5-2.7,3.5-4.7,6.1-6.2c2.6-1.4,5.5-2.2,8.8-2.2c4.4,0,7.8,1.4,10.3,4.1v-3.6
		H280.4z M268.1,59.6c1.7-1.7,2.5-4,2.5-6.9s-0.8-5.2-2.5-6.9s-3.7-2.6-6.2-2.6c-2.5,0-4.7,0.9-6.3,2.6s-2.5,4-2.5,6.9
		s0.8,5.2,2.5,6.9s3.8,2.6,6.3,2.6C264.4,62.2,266.5,61.4,268.1,59.6z"/>
	<path class="st0" d="M318.5,37.3c2.6,1.5,4.7,3.5,6.2,6.2c1.5,2.7,2.2,5.7,2.2,9.3c0,3.5-0.7,6.6-2.2,9.3c-1.5,2.7-3.5,4.7-6.2,6.2
		c-2.6,1.5-5.5,2.2-8.7,2.2c-4.4,0-7.8-1.4-10.3-4.1v16h-9.9V35.6h9.5v4c2.5-3,6.1-4.5,10.8-4.5C313,35.1,315.9,35.8,318.5,37.3z
		 M314.4,59.6c1.6-1.7,2.5-4,2.5-6.9s-0.8-5.2-2.5-6.9c-1.6-1.7-3.7-2.6-6.3-2.6c-2.5,0-4.6,0.9-6.3,2.6c-1.6,1.7-2.5,4-2.5,6.9
		s0.8,5.2,2.5,6.9c1.6,1.7,3.7,2.6,6.3,2.6C310.6,62.2,312.7,61.4,314.4,59.6z"/>
</g>
<path class="st0" d="M1,83c-0.7-0.6-1-1.4-1-2.3c0-0.9,0.3-1.7,1-2.3c0.7-0.6,1.5-0.9,2.5-0.9s1.9,0.3,2.5,0.9c0.7,0.6,1,1.3,1,2.2
	c0,0.9-0.3,1.7-1,2.3C5.4,83.7,4.6,84,3.5,84S1.6,83.7,1,83z M0.7,86.7h5.7v19.6H0.7V86.7z"/>
<path class="st0" d="M29.4,88.6c1.5,1.5,2.2,3.6,2.2,6.5v11.2H26V95.9c0-1.6-0.3-2.7-1-3.5c-0.7-0.8-1.7-1.1-2.9-1.1
	c-1.4,0-2.6,0.4-3.4,1.3c-0.9,0.9-1.3,2.2-1.3,4v9.7h-5.7V86.7h5.4V89c0.8-0.8,1.7-1.5,2.8-1.9c1.1-0.4,2.3-0.7,3.7-0.7
	C26,86.4,28,87.1,29.4,88.6z"/>
<path class="st0" d="M38.6,106c-1.6-0.4-2.8-0.9-3.7-1.5l1.9-4.1c0.9,0.6,1.9,1,3.2,1.4c1.2,0.4,2.5,0.5,3.6,0.5
	c2.4,0,3.6-0.6,3.6-1.8c0-0.6-0.3-1-1-1.2c-0.7-0.2-1.7-0.4-3-0.6c-1.6-0.2-2.9-0.5-4-0.8c-1-0.3-1.9-0.9-2.7-1.7
	c-0.8-0.8-1.1-1.9-1.1-3.4c0-1.2,0.4-2.3,1.1-3.3c0.7-1,1.8-1.7,3.1-2.2c1.4-0.5,3-0.8,4.9-0.8c1.4,0,2.8,0.2,4.1,0.5
	s2.5,0.7,3.4,1.3l-1.9,4c-1.7-1-3.6-1.5-5.6-1.5c-1.2,0-2.1,0.2-2.7,0.5c-0.6,0.3-0.9,0.8-0.9,1.3c0,0.6,0.3,1,1,1.3
	c0.7,0.2,1.7,0.5,3.1,0.7c1.6,0.3,2.9,0.6,3.9,0.9s1.9,0.9,2.7,1.7c0.8,0.8,1.1,1.9,1.1,3.4c0,1.2-0.4,2.3-1.1,3.2
	c-0.7,0.9-1.8,1.7-3.2,2.2c-1.4,0.5-3.1,0.8-5,0.8C41.8,106.6,40.2,106.4,38.6,106z"/>
<path class="st0" d="M68,105.3c-0.6,0.4-1.2,0.7-2.1,0.9s-1.7,0.3-2.5,0.3c-2.4,0-4.2-0.6-5.4-1.8c-1.3-1.2-1.9-2.9-1.9-5.2V82.4
	h5.7v4.8h4.8v4.4h-4.8v8c0,0.8,0.2,1.5,0.6,1.9c0.4,0.5,1,0.7,1.8,0.7c0.9,0,1.7-0.2,2.3-0.7L68,105.3z"/>
<path class="st0" d="M90.4,86.7v19.6H85V104c-1.4,1.7-3.4,2.5-6.1,2.5c-1.8,0-3.5-0.4-5-1.2s-2.7-2-3.5-3.5
	c-0.9-1.5-1.3-3.3-1.3-5.3c0-2,0.4-3.8,1.3-5.3c0.8-1.5,2-2.7,3.5-3.5c1.5-0.8,3.2-1.2,5-1.2c2.5,0,4.5,0.8,5.9,2.4v-2.1H90.4z
	 M83.4,100.4c0.9-1,1.4-2.3,1.4-4c0-1.7-0.5-3-1.4-4c-0.9-1-2.1-1.5-3.6-1.5c-1.5,0-2.7,0.5-3.6,1.5s-1.4,2.3-1.4,4
	c0,1.7,0.5,3,1.4,4s2.1,1.5,3.6,1.5C81.3,101.9,82.5,101.4,83.4,100.4z"/>
<path class="st0" d="M113.5,88.6c1.5,1.5,2.2,3.6,2.2,6.5v11.2H110V95.9c0-1.6-0.3-2.7-1-3.5c-0.7-0.8-1.7-1.1-2.9-1.1
	c-1.4,0-2.6,0.4-3.4,1.3c-0.9,0.9-1.3,2.2-1.3,4v9.7h-5.7V86.7h5.4V89c0.8-0.8,1.7-1.5,2.8-1.9c1.1-0.4,2.3-0.7,3.7-0.7
	C110,86.4,112,87.1,113.5,88.6z"/>
<path class="st0" d="M132.6,105.3c-0.6,0.4-1.2,0.7-2.1,0.9s-1.7,0.3-2.5,0.3c-2.4,0-4.2-0.6-5.4-1.8c-1.3-1.2-1.9-2.9-1.9-5.2V82.4
	h5.7v4.8h4.8v4.4h-4.8v8c0,0.8,0.2,1.5,0.6,1.9c0.4,0.5,1,0.7,1.8,0.7c0.9,0,1.7-0.2,2.3-0.7L132.6,105.3z"/>
<g>
	<path id="SVGID_1_" class="st0" d="M346.6,81.7v-54c0-15.1,12.7-28,27.8-28h54.2V55c0,15.1-11.7,26.7-26.8,26.7H346.6z"/>
</g>
<path class="st1" d="M412.5,6.2c0.2-0.2,0.6-0.2,0.8,0l2.6,2.6c0.2,0.2,0.2,0.6,0,0.8l-12.2,12c-0.2,0.2-0.6,0.2-0.8,0l-2.6-2.6
	c-0.2-0.2-0.2-0.6,0-0.8L412.5,6.2z"/>
<path class="st2" d="M381.3,30.1c5.9-5.8,24.5-14,24.5-14s-8.5,18.5-14.4,24.3s-9.4,4.7-12.2,1.9S375.4,35.9,381.3,30.1z"/>
<path class="st2" d="M383.9,32.7c5.9-5.8,22-16.6,22-16.6s-11,15.9-17,21.7s-8.3,5.9-9.7,4.5C377.9,40.9,378,38.6,383.9,32.7z"/>
<line class="st3" x1="379.3" y1="42.3" x2="392.2" y2="29.4"/>
<line class="st3" x1="393.5" y1="28.1" x2="394.7" y2="26.9"/>
<g>
	<path class="st1" d="M365.5,27.5h8.1l-9,27.2h14V38.3h7.6V71h-7.6v-9.1h-22.4v-6.3L365.5,27.5z"/>
</g>
<path class="st0" d="M363.4,26c-0.6,0-1.1,0.5-1.1,1.1v4.4c0,0.6,0.4,1.1,0.9,1.1s0.9-0.5,0.9-1.1l0,0c0-0.6,0.5-1.1,1.1-1.1
	s1.1,0.5,1.1,1.1l0,0c0,0.6,0.3,1.1,0.8,1.1s0.8-0.5,0.8-1.1l0,0c0-0.6,0.5-1.1,1.1-1.1s1.1,0.5,1.1,1.1v8.1c0,0.6,0.3,1.1,0.8,1.1
	c0.4,0,0.8-0.5,0.8-1.1v-9.5c0-0.6,0.5-1.1,1.1-1.1s1.1,0.5,1.1,1.1v9.5c0,0.6,0.4,1.1,1,1.1c0.5,0,1-0.5,1-1.1V27.2
	c0-0.6-0.5-1.1-1.1-1.1h-11.4L363.4,26L363.4,26z"/>
<path class="st0" d="M378.4,37.3c-0.4,0-0.8,0.4-0.8,0.8v3.2c0,0.4,0.3,0.8,0.7,0.8s0.7-0.4,0.7-0.8l0,0c0-0.4,0.4-0.8,0.8-0.8
	s0.8,0.4,0.8,0.8l0,0c0,0.4,0.2,0.8,0.6,0.8s0.6-0.4,0.6-0.8l0,0c0-0.4,0.4-0.8,0.8-0.8s0.8,0.4,0.8,0.8v5.9c0,0.4,0.2,0.8,0.6,0.8
	c0.3,0,0.6-0.4,0.6-0.8v-7c0-0.4,0.4-0.8,0.8-0.8s0.8,0.4,0.8,0.8v7c0,0.4,0.3,0.8,0.7,0.8c0.4,0,0.7-0.4,0.7-0.8v-9.1
	c0-0.4-0.4-0.8-0.8-0.8L378.4,37.3L378.4,37.3z"/>
<g>
	<path class="st1" d="M389.7,69.9c0-0.9,0.7-1.5,1.5-1.5c0.9,0,1.5,0.6,1.5,1.5c0,0.8-0.7,1.5-1.5,1.5
		C390.4,71.4,389.7,70.8,389.7,69.9z"/>
	<path class="st1" d="M400.9,69.2h2.1c0.2,0,0.2,0,0.3,0.2c0,0.2,0.1,0.5,0.1,0.8c0,0.3,0,0.6-0.1,0.8c0,0.2-0.1,0.2-0.3,0.2h-7.9
		c-0.2,0-0.2,0-0.3-0.2c0-0.2-0.1-0.5-0.1-0.8c0-0.3,0-0.6,0.1-0.8c0-0.2,0.1-0.2,0.3-0.2h2.5c0.1,0,0.2,0,0.2-0.2v-6.8
		c0-0.1,0-0.2-0.2-0.2h-2.3c-0.2,0-0.2,0-0.3-0.2c0-0.2-0.1-0.5-0.1-0.8c0-0.3,0-0.6,0.1-0.8c0-0.2,0.1-0.2,0.3-0.2h5
		c0.3,0,0.4,0.1,0.4,0.4V69C400.7,69.2,400.7,69.2,400.9,69.2z"/>
	<path class="st1" d="M407.5,60.1v5.5c0,2.4,0.3,3.9,2.1,3.9c0.7,0,1.2-0.2,1.5-0.6v2.4c-0.4,0.1-1,0.1-1.5,0.1c-3.8,0-5-2.2-5-5.8
		C404.6,62.8,405.3,60.8,407.5,60.1z M409.6,59.8c3.8,0,5,2.2,5,5.8c0,2.8-0.7,4.8-2.9,5.5v-5.5c0-2.4-0.3-3.9-2.1-3.9
		c-0.7,0-1.2,0.2-1.5,0.6v-2.4C408.5,59.9,409.1,59.8,409.6,59.8z"/>
</g>
</svg>
