<?xml version="1.0" encoding="utf-8"?>
<!-- Generator: Adobe Illustrator 22.0.1, SVG Export Plug-In . SVG Version: 6.00 Build 0)  -->
<svg version="1.1" id="Layer_1" xmlns="http://www.w3.org/2000/svg" xmlns:xlink="http://www.w3.org/1999/xlink" x="0px" y="0px"
	 viewBox="0 0 436 134.9" style="enable-background:new 0 0 436 134.9;" xml:space="preserve">
<g>
	<path d="M32.5,53.3H4.9v-1.7l15.8-18.2c2.6-3,4.5-5.7,5.8-8.1c1.3-2.3,1.9-4.5,1.9-6.5c0-3.4-1-6-3-7.9c-2-1.9-4.7-2.8-8.3-2.8
		c-2.2,0-4.1,0.5-5.9,1.6c-1.8,1-3.2,2.5-4.2,4.3c-1,1.8-1.5,3.9-1.5,6.1H3.7c0-2.5,0.6-4.8,1.7-6.9c1.1-2.1,2.7-3.8,4.8-5
		s4.3-1.8,6.8-1.8c4.1,0,7.3,1.1,9.6,3.3c2.3,2.2,3.4,5.2,3.4,9.1c0,3.6-2,7.9-6.1,12.9l-2.9,3.5l-14,16.3h25.4V53.3z"/>
	<path d="M62.2,44.9c0-4.2-3.6-7-10.7-8.5c-4.3-0.9-7.2-2.1-8.9-3.5c-1.7-1.4-2.5-3.4-2.5-5.9c0-2.5,1.1-4.6,3.2-6.2
		c2.1-1.6,4.9-2.4,8.3-2.4c3.7,0,6.7,0.9,8.9,2.7c2.2,1.8,3.4,4.2,3.4,7.2h-1.7c0-2.3-1-4.2-2.9-5.8c-1.9-1.5-4.5-2.3-7.6-2.3
		c-3,0-5.4,0.7-7.1,2c-1.8,1.3-2.6,3-2.6,4.9c0,1.5,0.3,2.8,1,3.6c0.7,0.9,1.7,1.7,3.2,2.4c1.5,0.7,3.6,1.4,6.5,2
		c2.8,0.7,5.1,1.4,6.7,2.3s2.8,1.9,3.6,3.2c0.7,1.2,1.1,2.7,1.1,4.5c0,2.7-1.1,4.9-3.3,6.5s-5.1,2.5-8.7,2.5c-3.9,0-7-0.9-9.3-2.6
		c-2.4-1.7-3.5-4-3.5-6.7h1.7c0.2,2.4,1.2,4.3,3.2,5.6c2,1.3,4.6,2,8,2c3.1,0,5.6-0.7,7.5-2.1C61.3,48.7,62.2,46.9,62.2,44.9z"/>
	<path d="M83.4,34.2L94.4,19h2.2L84.5,35.7l12.7,17.6h-2.1L83.4,37.2L71.8,53.3h-2.1l12.7-17.6L70.3,19h2.2L83.4,34.2z"/>
	<path d="M115.4,52.2c3.1,0,5.7-0.8,7.7-2.5c2-1.7,3.1-3.9,3.3-6.9h1.7c-0.2,3.3-1.4,6-3.8,8c-2.4,2-5.4,3-8.9,3
		c-4.3,0-7.7-1.6-10.2-4.7s-3.8-7.3-3.8-12.7v-1.1c0-5.2,1.3-9.4,3.8-12.5s5.9-4.7,10.2-4.7c3.6,0,6.6,1.1,9,3.3
		c2.4,2.2,3.6,5.1,3.8,8.7h-1.7c-0.1-3.1-1.2-5.6-3.3-7.4c-2-1.9-4.6-2.8-7.8-2.8c-3.8,0-6.8,1.4-9,4.1c-2.2,2.8-3.3,6.6-3.3,11.5
		v1.1c0,4.8,1.1,8.6,3.3,11.3C108.6,50.9,111.6,52.2,115.4,52.2z"/>
	<path d="M137.7,53.3V7.1h12.2c5,0,8.7,1,11.3,3s3.8,5,3.8,8.8c0,2.8-0.7,5.1-2.1,7c-1.4,1.8-3.4,3-6,3.5c2.9,0.4,5.4,1.6,7.3,3.8
		c1.9,2.1,2.9,4.6,2.9,7.4c0,3.9-1.3,7-3.8,9.3c-2.5,2.3-6.1,3.4-10.6,3.4H137.7z M139.4,28.8h11.1c4.2,0,7.4-0.8,9.5-2.4
		c2.1-1.6,3.2-4.1,3.2-7.5c0-6.6-4.3-9.9-13-10h-10.8V28.8z M139.4,30.5v21.1h13.4c3.9,0,7-1,9.2-2.9c2.2-1.9,3.3-4.6,3.3-8
		c0-2.9-1.1-5.3-3.2-7.2c-2.2-1.9-5-2.9-8.7-2.9H139.4z"/>
	<path d="M173.4,35.5c0-3.3,0.6-6.2,1.9-8.8c1.3-2.6,3-4.6,5.3-6.1c2.3-1.5,4.9-2.2,7.8-2.2c2.9,0,5.5,0.7,7.7,2.1
		c2.3,1.4,4.1,3.4,5.3,6c1.3,2.6,1.9,5.5,2,8.8v1.5c0,3.3-0.6,6.3-1.9,8.9c-1.2,2.6-3,4.6-5.3,6.1s-4.9,2.2-7.8,2.2
		c-2.9,0-5.5-0.7-7.8-2.2c-2.3-1.4-4.1-3.5-5.3-6s-1.9-5.5-1.9-8.7V35.5z M175.1,36.8c0,2.9,0.6,5.5,1.7,7.9
		c1.1,2.4,2.7,4.2,4.7,5.6s4.3,2,6.9,2c3.9,0,7.1-1.5,9.6-4.4c2.5-2.9,3.7-6.7,3.7-11.4v-1c0-2.8-0.6-5.4-1.7-7.8
		c-1.1-2.4-2.7-4.3-4.7-5.6c-2-1.3-4.3-2-6.9-2c-3.9,0-7.1,1.5-9.6,4.5s-3.7,6.7-3.7,11.3V36.8z"/>
	<path d="M209.1,35.5c0-3.3,0.6-6.2,1.9-8.8c1.3-2.6,3-4.6,5.3-6.1c2.3-1.5,4.9-2.2,7.8-2.2c2.9,0,5.5,0.7,7.7,2.1
		c2.3,1.4,4.1,3.4,5.3,6c1.3,2.6,1.9,5.5,2,8.8v1.5c0,3.3-0.6,6.3-1.9,8.9c-1.2,2.6-3,4.6-5.3,6.1s-4.9,2.2-7.8,2.2
		c-2.9,0-5.5-0.7-7.8-2.2c-2.3-1.4-4.1-3.5-5.3-6s-1.9-5.5-1.9-8.7V35.5z M210.8,36.8c0,2.9,0.6,5.5,1.7,7.9
		c1.1,2.4,2.7,4.2,4.7,5.6s4.3,2,6.9,2c3.9,0,7.1-1.5,9.6-4.4c2.5-2.9,3.7-6.7,3.7-11.4v-1c0-2.8-0.6-5.4-1.7-7.8
		c-1.1-2.4-2.7-4.3-4.7-5.6c-2-1.3-4.3-2-6.9-2c-3.9,0-7.1,1.5-9.6,4.5s-3.7,6.7-3.7,11.3V36.8z"/>
	<path d="M251.3,9.7V19h7.8v1.7h-7.8v24.4c0,2.4,0.4,4.2,1.2,5.4c0.8,1.2,2.1,1.7,4,1.7c0.9,0,2.1-0.1,3.4-0.3l0.3,1.6
		c-0.7,0.3-1.9,0.4-3.6,0.4c-2.5,0-4.3-0.7-5.4-2.1c-1.1-1.4-1.6-3.6-1.7-6.6V20.7h-6.3V19h6.3V9.7H251.3z"/>
	<path d="M289.2,44.9c0-4.2-3.6-7-10.7-8.5c-4.3-0.9-7.2-2.1-8.9-3.5c-1.7-1.4-2.5-3.4-2.5-5.9c0-2.5,1.1-4.6,3.2-6.2
		c2.1-1.6,4.9-2.4,8.3-2.4c3.7,0,6.7,0.9,8.9,2.7c2.2,1.8,3.4,4.2,3.4,7.2h-1.7c0-2.3-1-4.2-2.9-5.8c-1.9-1.5-4.5-2.3-7.6-2.3
		c-3,0-5.4,0.7-7.1,2c-1.8,1.3-2.6,3-2.6,4.9c0,1.5,0.3,2.8,1,3.6c0.7,0.9,1.7,1.7,3.2,2.4c1.5,0.7,3.6,1.4,6.5,2
		c2.8,0.7,5.1,1.4,6.7,2.3s2.8,1.9,3.6,3.2c0.7,1.2,1.1,2.7,1.1,4.5c0,2.7-1.1,4.9-3.3,6.5s-5.1,2.5-8.7,2.5c-3.9,0-7-0.9-9.3-2.6
		c-2.4-1.7-3.5-4-3.5-6.7h1.7c0.2,2.4,1.2,4.3,3.2,5.6c2,1.3,4.6,2,8,2c3.1,0,5.6-0.7,7.5-2.1C288.3,48.7,289.2,46.9,289.2,44.9z"/>
	<path d="M304.2,9.7V19h7.8v1.7h-7.8v24.4c0,2.4,0.4,4.2,1.2,5.4c0.8,1.2,2.1,1.7,4,1.7c0.9,0,2.1-0.1,3.4-0.3l0.3,1.6
		c-0.7,0.3-1.9,0.4-3.6,0.4c-2.5,0-4.3-0.7-5.4-2.1c-1.1-1.4-1.6-3.6-1.7-6.6V20.7h-6.3V19h6.3V9.7H304.2z"/>
	<path d="M336.1,20.2l-2.2-0.2c-2.9,0-5.4,0.9-7.3,2.8c-2,1.9-3.3,4.5-3.9,7.9v22.5H321V19h1.7v7.1c0.9-2.4,2.3-4.3,4.2-5.7
		c1.9-1.4,4.2-2.1,7-2.1c1,0,1.8,0.1,2.4,0.4L336.1,20.2z"/>
	<path d="M363.6,53.3c-0.4-1.5-0.6-3.6-0.6-6.3c-1.4,2.2-3.2,3.9-5.6,5.1s-5,1.8-8,1.8c-3.2,0-5.7-0.9-7.7-2.6
		c-1.9-1.7-2.9-4-2.9-6.7c0-3.2,1.4-5.7,4.3-7.6s6.6-2.9,11.3-2.9h8.5v-5c0-2.9-0.9-5.1-2.7-6.7c-1.8-1.6-4.4-2.4-7.8-2.4
		c-3.1,0-5.7,0.8-7.8,2.4c-2.1,1.6-3.1,3.6-3.1,6l-1.7-0.1c0-2.8,1.2-5.2,3.7-7.1c2.5-1.9,5.5-2.9,9-2.9c3.7,0,6.6,0.9,8.8,2.8
		c2.2,1.9,3.3,4.5,3.4,7.8v16.4c0,3.8,0.3,6.3,0.9,7.7v0.3H363.6z M349.5,52.2c3.2,0,6-0.7,8.3-2.2c2.3-1.4,4.1-3.5,5.2-6.1v-8.2
		h-7.9c-4.9,0-8.7,1-11.3,2.9c-2.1,1.6-3.2,3.6-3.2,5.9c0,2.1,0.8,3.9,2.5,5.3C344.8,51.5,346.9,52.2,349.5,52.2z"/>
	<path d="M402,36.4c0,5.4-1.2,9.6-3.5,12.8c-2.3,3.2-5.4,4.7-9.4,4.7c-2.6,0-4.9-0.5-7-1.6s-3.6-2.5-4.8-4.4v18.5h-1.7V19h1.7v6.1
		c1.2-2.2,2.8-3.9,4.8-5c2-1.2,4.3-1.7,6.9-1.7c4,0,7.2,1.5,9.5,4.6c2.3,3.1,3.5,7.4,3.5,13V36.4z M400.3,35.8c0-4.9-1-8.8-2.9-11.6
		c-2-2.8-4.7-4.2-8.2-4.2c-2.9,0-5.3,0.7-7.3,2.2c-2,1.5-3.5,3.6-4.3,6.4v16.1c0.9,2.4,2.3,4.2,4.4,5.5c2,1.3,4.5,2,7.4,2
		c3.5,0,6.2-1.4,8.2-4.2C399.3,45.2,400.3,41.2,400.3,35.8z"/>
	<path d="M4.9,132.6V68.2H28c8.3,0,14.6,1.5,18.9,4.6c4.3,3,6.5,7.4,6.5,13.2c0,3.3-0.8,6.2-2.3,8.5c-1.5,2.4-3.8,4.1-6.8,5.2
		c3.4,0.9,5.9,2.5,7.7,5c1.8,2.4,2.7,5.4,2.7,8.8c0,6.3-2,11-6,14.2c-4,3.2-9.9,4.8-17.8,4.8H4.9z M20.4,95h8.1
		c3.4,0,5.8-0.7,7.3-1.9c1.4-1.2,2.2-3,2.2-5.4c0-2.7-0.8-4.7-2.3-5.9c-1.6-1.2-4.1-1.8-7.6-1.8h-7.6V95z M20.4,105.2v15.4h10.2
		c2.8,0,5-0.6,6.5-1.9c1.5-1.3,2.3-3.1,2.3-5.4c0-5.4-2.7-8.1-8-8.1H20.4z"/>
	<path d="M101.7,107.4h6.5v11.5h-6.5v13.7H86.8v-13.7H61.9l-0.9-9.1l25.8-41.5v-0.1h14.9V107.4z M75.2,107.4h11.6V87.6l-0.9,1.5
		L75.2,107.4z"/>
</g>
</svg>
