<?xml version="1.0" encoding="utf-8"?>
<!-- Generator: Adobe Illustrator 21.0.2, SVG Export Plug-In . SVG Version: 6.00 Build 0)  -->
<svg version="1.1" id="Layer_1" xmlns="http://www.w3.org/2000/svg" xmlns:xlink="http://www.w3.org/1999/xlink" x="0px" y="0px"
	 viewBox="0 0 436 134.9" style="enable-background:new 0 0 436 134.9;" xml:space="preserve">
<style type="text/css">
	.st0{fill:#5B4484;}
	.st1{fill:#FFFFFF;}
	.st2{fill:none;stroke:#FFFFFF;stroke-width:1.5;stroke-miterlimit:10;}
	.st3{fill:none;stroke:#FFFFFF;stroke-width:1.5;stroke-linecap:round;stroke-miterlimit:10;}
	.st4{fill:#5C4483;}
</style>
<path class="st0" d="M0,81.8V26.2h19.5c6.8,0,11.9,1.3,15.4,3.9c3.5,2.6,5.2,6.4,5.2,11.4c0,2.7-0.7,5.1-2.1,7.2
	c-1.4,2.1-3.4,3.6-5.8,4.6c2.9,0.7,5.1,2.2,6.7,4.3s2.5,4.8,2.5,8c0,5.4-1.7,9.4-5.1,12.2c-3.4,2.8-8.3,4.2-14.6,4.2H0z M11.5,49.5
	H20c5.8-0.1,8.7-2.4,8.7-6.9c0-2.5-0.7-4.3-2.2-5.4c-1.5-1.1-3.8-1.7-6.9-1.7h-8V49.5z M11.5,57.6v15h9.8c2.7,0,4.8-0.6,6.3-1.9
	c1.5-1.3,2.3-3.1,2.3-5.3c0-5.1-2.6-7.7-7.9-7.8H11.5z"/>
<path class="st0" d="M47.5,60.7c0-4.1,0.8-7.8,2.4-11c1.6-3.2,3.9-5.7,6.8-7.5c3-1.8,6.4-2.6,10.3-2.6c5.6,0,10.1,1.7,13.7,5.1
	c3.5,3.4,5.5,8.1,5.9,13.9l0.1,2.8c0,6.3-1.8,11.4-5.3,15.3c-3.5,3.8-8.3,5.8-14.3,5.8s-10.7-1.9-14.3-5.7s-5.3-9-5.3-15.6V60.7z
	 M58.6,61.5c0,3.9,0.7,6.9,2.2,9c1.5,2.1,3.6,3.1,6.3,3.1c2.7,0,4.8-1,6.3-3.1c1.5-2.1,2.3-5.3,2.3-9.9c0-3.9-0.8-6.8-2.3-9
	c-1.5-2.1-3.6-3.2-6.3-3.2c-2.7,0-4.8,1.1-6.3,3.2C59.3,53.9,58.6,57.1,58.6,61.5z"/>
<path class="st0" d="M91.8,60.7c0-4.1,0.8-7.8,2.4-11c1.6-3.2,3.9-5.7,6.8-7.5c3-1.8,6.4-2.6,10.3-2.6c5.6,0,10.1,1.7,13.7,5.1
	c3.5,3.4,5.5,8.1,5.9,13.9l0.1,2.8c0,6.3-1.8,11.4-5.3,15.3c-3.5,3.8-8.3,5.8-14.3,5.8s-10.7-1.9-14.3-5.7s-5.3-9-5.3-15.6V60.7z
	 M102.8,61.5c0,3.9,0.7,6.9,2.2,9c1.5,2.1,3.6,3.1,6.3,3.1c2.7,0,4.8-1,6.3-3.1c1.5-2.1,2.3-5.3,2.3-9.9c0-3.9-0.8-6.8-2.3-9
	c-1.5-2.1-3.6-3.2-6.3-3.2c-2.7,0-4.8,1.1-6.3,3.2C103.6,53.9,102.8,57.1,102.8,61.5z"/>
<path class="st0" d="M151,30.3v10.2h7.1v8.1H151v20.6c0,1.5,0.3,2.6,0.9,3.3c0.6,0.7,1.7,1,3.4,1c1.2,0,2.3-0.1,3.2-0.3v8.4
	c-2.2,0.7-4.4,1-6.7,1c-7.7,0-11.7-3.9-11.8-11.7V48.6h-6v-8.1h6V30.3H151z"/>
<path class="st0" d="M186.6,70.4c0-1.4-0.7-2.4-2-3.2s-3.5-1.5-6.4-2.1c-9.8-2.1-14.8-6.2-14.8-12.5c0-3.7,1.5-6.7,4.6-9.2
	c3-2.5,7-3.7,11.9-3.7c5.2,0,9.4,1.2,12.6,3.7c3.1,2.5,4.7,5.7,4.7,9.6h-11c0-1.6-0.5-2.9-1.5-3.9s-2.6-1.5-4.8-1.5
	c-1.9,0-3.3,0.4-4.3,1.3c-1,0.8-1.5,1.9-1.5,3.2c0,1.2,0.6,2.2,1.7,3c1.2,0.8,3.1,1.4,5.9,1.9c2.8,0.5,5.1,1.2,7,1.9
	c5.8,2.1,8.8,5.8,8.8,11.1c0,3.8-1.6,6.8-4.9,9.2c-3.2,2.3-7.4,3.5-12.5,3.5c-3.5,0-6.5-0.6-9.2-1.9c-2.7-1.2-4.8-2.9-6.3-5.1
	c-1.5-2.2-2.3-4.5-2.3-7h10.5c0.1,2,0.8,3.5,2.2,4.5c1.4,1,3.2,1.6,5.4,1.6c2.1,0,3.7-0.4,4.8-1.2S186.6,71.7,186.6,70.4z"/>
<path class="st0" d="M217.7,30.3v10.2h7.1v8.1h-7.1v20.6c0,1.5,0.3,2.6,0.9,3.3c0.6,0.7,1.7,1,3.4,1c1.2,0,2.3-0.1,3.2-0.3v8.4
	c-2.2,0.7-4.4,1-6.7,1c-7.7,0-11.7-3.9-11.8-11.7V48.6h-6v-8.1h6V30.3H217.7z"/>
<path class="st0" d="M254.1,50.8c-1.5-0.2-2.8-0.3-4-0.3c-4.2,0-6.9,1.4-8.2,4.2v27.1h-11V40.5h10.4l0.3,4.9
	c2.2-3.8,5.3-5.7,9.2-5.7c1.2,0,2.4,0.2,3.4,0.5L254.1,50.8z"/>
<path class="st0" d="M282.3,81.8c-0.5-1-0.9-2.2-1.1-3.7c-2.7,3-6.2,4.5-10.4,4.5c-4.1,0-7.4-1.2-10.1-3.5c-2.7-2.3-4-5.3-4-8.9
	c0-4.4,1.6-7.7,4.9-10.1c3.3-2.3,7.9-3.5,14.1-3.6h5.1v-2.4c0-1.9-0.5-3.4-1.5-4.6c-1-1.1-2.5-1.7-4.6-1.7c-1.9,0-3.3,0.4-4.4,1.3
	c-1.1,0.9-1.6,2.1-1.6,3.7h-11c0-2.4,0.7-4.6,2.2-6.7c1.5-2,3.6-3.6,6.3-4.8s5.7-1.7,9.1-1.7c5.1,0,9.1,1.3,12.1,3.8
	c3,2.6,4.5,6.2,4.5,10.8v17.9c0,3.9,0.6,6.9,1.6,8.9v0.6H282.3z M273.1,74.1c1.6,0,3.1-0.4,4.5-1.1c1.4-0.7,2.4-1.7,3.1-2.9V63h-4.1
	c-5.5,0-8.5,1.9-8.8,5.7l0,0.7c0,1.4,0.5,2.5,1.5,3.4C270.1,73.7,271.5,74.1,273.1,74.1z"/>
<path class="st0" d="M337.5,61.5c0,6.4-1.4,11.5-4.3,15.3c-2.9,3.8-6.8,5.8-11.7,5.8c-4.2,0-7.6-1.5-10.1-4.4v19.5h-11V40.5h10.2
	l0.4,4.1c2.7-3.2,6.2-4.8,10.5-4.8c5.1,0,9.1,1.9,11.9,5.7c2.8,3.8,4.2,9,4.2,15.6V61.5z M326.5,60.7c0-3.9-0.7-6.8-2-8.9
	s-3.3-3.1-5.9-3.1c-3.5,0-5.8,1.3-7.1,4v17c1.4,2.7,3.8,4.1,7.2,4.1C323.8,73.7,326.5,69.3,326.5,60.7z"/>
<g>
	<path class="st0" d="M3,133H1.9v-29.7H3V133z"/>
	<path class="st0" d="M33.4,133h-1.1l-19.2-27.8V133H12v-29.7h1.1l19.2,27.7v-27.7h1.1V133z"/>
	<path class="st0" d="M59.3,125.9c0-1.3-0.3-2.3-0.9-3.2c-0.6-0.9-1.5-1.7-2.8-2.3c-1.3-0.7-3.2-1.4-5.8-2.1
		c-2.6-0.7-4.5-1.4-5.8-2.1c-1.3-0.7-2.2-1.6-2.8-2.5c-0.6-1-0.9-2.1-0.9-3.5c0-2.2,0.9-3.9,2.7-5.2c1.8-1.3,4.2-2,7.1-2
		c1.9,0,3.6,0.4,5.1,1.1c1.5,0.7,2.7,1.8,3.5,3.1c0.8,1.3,1.2,2.9,1.2,4.5H59c0-2.2-0.8-4-2.4-5.5s-3.7-2.2-6.3-2.2
		c-2.6,0-4.7,0.6-6.3,1.7s-2.4,2.6-2.4,4.4c0,1.8,0.7,3.2,2.1,4.3c1.4,1.1,3.7,2,6.9,2.9s5.6,1.8,7.1,2.9c1.9,1.4,2.9,3.3,2.9,5.6
		c0,1.5-0.4,2.8-1.3,4c-0.8,1.1-2,2-3.6,2.7c-1.5,0.6-3.3,0.9-5.2,0.9c-2.1,0-4.1-0.4-5.8-1.1c-1.7-0.7-3-1.7-3.9-3
		c-0.9-1.3-1.3-2.9-1.3-4.7h1.1c0,2.4,0.9,4.3,2.7,5.7c1.8,1.3,4.2,2,7.1,2c2.6,0,4.7-0.6,6.4-1.8S59.3,127.8,59.3,125.9z"/>
	<path class="st0" d="M86,104.4H75.2V133h-1.1v-28.6H63.3v-1.1H86V104.4z"/>
	<path class="st0" d="M105.2,124.1H90.7l-3.3,8.9h-1.2l11.1-29.7h1.3l11.1,29.7h-1.2L105.2,124.1z M91.1,123h13.7l-6.8-18.4
		L91.1,123z"/>
	<path class="st0" d="M135.9,133h-1.1l-19.2-27.8V133h-1.1v-29.7h1.1l19.2,27.7v-27.7h1.1V133z"/>
	<path class="st0" d="M163.2,104.4h-10.8V133h-1.1v-28.6h-10.8v-1.1h22.7V104.4z"/>
</g>
<g>
	<g>
		<g>
			<g>
				<defs>
					<path id="SVGID_1_" d="M354,82V28c0-15.1,12.7-28,27.8-28H436v55.3c0,15.1-11.7,26.7-26.8,26.7H354z"/>
				</defs>
				<use xlink:href="#SVGID_1_"  style="overflow:visible;fill:#5C4483;"/>
				<clipPath id="SVGID_2_">
					<use xlink:href="#SVGID_1_"  style="overflow:visible;"/>
				</clipPath>
			</g>
		</g>
	</g>
	<path class="st1" d="M392.9,50.4c0.5-1.2,0.8-2.6,0.8-4V35.6h-26.9v6.8H386v4c0,1.8-1.4,3.2-3.2,3.2h-6.2v0h-2.5v7.6H389
		c1.8,0,3.2,1.4,3.2,3.2c0,1.8-1.4,3.2-3.2,3.2h-22.2v7.6H389c6,0,10.9-4.9,10.9-10.9C399.8,55.9,396.9,52,392.9,50.4z"/>
	<g>
		<g>
			<g>
				<path class="st1" d="M419.9,6.5c0.2-0.2,0.6-0.2,0.8,0l2.6,2.6c0.2,0.2,0.2,0.6,0,0.8l-12.2,12c-0.2,0.2-0.6,0.2-0.8,0l-2.6-2.6
					c-0.2-0.2-0.2-0.6,0-0.8L419.9,6.5z"/>
			</g>
			<g>
				<path class="st2" d="M388.7,30.4c5.9-5.8,24.5-14,24.5-14s-8.5,18.5-14.4,24.3c-5.9,5.8-9.4,4.7-12.2,1.9S382.8,36.2,388.7,30.4
					z"/>
				<path class="st2" d="M391.3,33c5.9-5.8,22-16.6,22-16.6s-11,15.9-17,21.7s-8.3,5.9-9.7,4.5C385.3,41.2,385.4,38.9,391.3,33z"/>
				<line class="st3" x1="386.7" y1="42.6" x2="399.6" y2="29.7"/>
			</g>
		</g>
		<line class="st3" x1="400.9" y1="28.4" x2="402.1" y2="27.2"/>
	</g>
	<path class="st4" d="M383.6,34.2c-0.6,0-1.1,0.5-1.1,1.1v4.4c0,0.6,0.4,1.1,0.9,1.1s0.9-0.5,0.9-1.1v0c0-0.6,0.5-1.1,1.1-1.1
		s1.1,0.5,1.1,1.1v0c0,0.6,0.3,1.1,0.8,1.1s0.8-0.5,0.8-1.1v0c0-0.6,0.5-1.1,1.1-1.1c0.6,0,1.1,0.5,1.1,1.1v8.1
		c0,0.6,0.3,1.1,0.8,1.1c0.4,0,0.8-0.5,0.8-1.1v-9.5c0-0.6,0.5-1.1,1.1-1.1c0.6,0,1.1,0.5,1.1,1.1v9.5c0,0.6,0.4,1.1,1,1.1
		c0.5,0,1-0.5,1-1.1V35.4c0-0.6-0.5-1.1-1.1-1.1H383.6z"/>
</g>
</svg>
