<?xml version="1.0" encoding="utf-8"?>
<!-- Generator: Adobe Illustrator 24.0.2, SVG Export Plug-In . SVG Version: 6.00 Build 0)  -->
<svg version="1.1" id="Layer_1" xmlns="http://www.w3.org/2000/svg" xmlns:xlink="http://www.w3.org/1999/xlink" x="0px" y="0px"
	 viewBox="0 0 1000 249.3" style="enable-background:new 0 0 1000 249.3;" xml:space="preserve">
<style type="text/css">
	.st0{fill:#65345C;}
	.st1{fill:#FFFFFF;}
	.st2{fill:none;stroke:#FFFFFF;stroke-width:3.4996;stroke-miterlimit:10;}
	.st3{fill:none;stroke:#FFFFFF;stroke-width:3.4996;stroke-linecap:round;stroke-miterlimit:10;}
</style>
<g>
	<path class="st0" d="M92.2,119c3.4,4.4,5.1,9.8,5.1,16.3c0,9.1-3.5,16.1-10.6,21c-7.1,4.9-17.4,7.4-31,7.4H1.8V59.6h50.9
		c12.7,0,22.4,2.4,29.2,7.3C88.6,71.8,92,78.4,92,86.7c0,5.1-1.2,9.6-3.6,13.5c-2.4,4-5.8,7.1-10.2,9.4
		C84.1,111.5,88.8,114.6,92.2,119z M25.7,77.8v24.5h23.9c5.9,0,10.5-1,13.5-3.1c3.1-2.1,4.6-5.2,4.6-9.2c0-4.1-1.5-7.1-4.6-9.1
		c-3.1-2-7.6-3-13.5-3H25.7z M68.2,142.4c3.2-2.1,4.8-5.3,4.8-9.7c0-8.6-6.4-12.9-19.2-12.9H25.7v25.7h28.1
		C60.2,145.6,64.9,144.5,68.2,142.4z"/>
	<path class="st0" d="M129.3,159.6c-6.7-3.5-11.9-8.4-15.7-14.6c-3.8-6.2-5.7-13.3-5.7-21.3s1.9-15,5.7-21.3
		c3.8-6.2,9-11.1,15.7-14.6c6.7-3.5,14.2-5.3,22.7-5.3c8.4,0,16,1.8,22.6,5.3c6.6,3.5,11.8,8.4,15.6,14.6c3.8,6.2,5.7,13.3,5.7,21.3
		s-1.9,15-5.7,21.3c-3.8,6.2-9,11.1-15.6,14.6c-6.6,3.5-14.2,5.3-22.6,5.3C143.5,164.9,136,163.1,129.3,159.6z M166.6,139.8
		c3.8-4,5.7-9.4,5.7-16.1c0-6.7-1.9-12.1-5.7-16.1c-3.8-4-8.7-6-14.6-6c-5.9,0-10.9,2-14.7,6c-3.9,4-5.8,9.4-5.8,16.1
		c0,6.7,1.9,12.1,5.8,16.1c3.9,4,8.8,6,14.7,6C157.9,145.9,162.8,143.9,166.6,139.8z"/>
	<path class="st0" d="M226.7,159.6c-6.7-3.5-11.9-8.4-15.7-14.6c-3.8-6.2-5.7-13.3-5.7-21.3s1.9-15,5.7-21.3
		c3.8-6.2,9-11.1,15.7-14.6c6.7-3.5,14.2-5.3,22.7-5.3s16,1.8,22.6,5.3c6.6,3.5,11.8,8.4,15.6,14.6c3.8,6.2,5.7,13.3,5.7,21.3
		s-1.9,15-5.7,21.3c-3.8,6.2-9,11.1-15.6,14.6c-6.6,3.5-14.2,5.3-22.6,5.3S233.4,163.1,226.7,159.6z M264,139.8
		c3.8-4,5.7-9.4,5.7-16.1c0-6.7-1.9-12.1-5.7-16.1c-3.8-4-8.7-6-14.6-6c-5.9,0-10.9,2-14.7,6c-3.9,4-5.8,9.4-5.8,16.1
		c0,6.7,1.9,12.1,5.8,16.1c3.9,4,8.8,6,14.7,6C255.3,145.9,260.2,143.9,264,139.8z"/>
	<path class="st0" d="M356.8,159.8c-2.3,1.7-5.1,3-8.4,3.8c-3.3,0.8-6.8,1.3-10.3,1.3c-9.6,0-17-2.4-22.2-7.3
		c-5.2-4.9-7.7-12-7.7-21.4V66h23.2v19.5h19.8v17.8h-19.8v32.6c0,3.4,0.8,6,2.5,7.8c1.7,1.8,4.1,2.8,7.3,2.8c3.6,0,6.7-1,9.5-3
		L356.8,159.8z"/>
	<path class="st0" d="M377.4,162.4c-6.3-1.6-11.4-3.7-15.2-6.2l7.7-16.7c3.6,2.3,7.9,4.1,12.9,5.6c5.1,1.4,10,2.2,14.9,2.2
		c9.8,0,14.7-2.4,14.7-7.3c0-2.3-1.3-3.9-4-4.9c-2.7-1-6.8-1.8-12.3-2.5c-6.5-1-11.9-2.1-16.2-3.4c-4.3-1.3-8-3.6-11.1-6.8
		c-3.1-3.3-4.7-7.9-4.7-14c0-5.1,1.5-9.5,4.4-13.5c2.9-3.9,7.2-7,12.8-9.1c5.6-2.2,12.2-3.3,19.9-3.3c5.7,0,11.3,0.6,16.9,1.9
		s10.2,3,13.9,5.1l-7.7,16.5c-7-4-14.7-5.9-23-5.9c-5,0-8.7,0.7-11.2,2.1c-2.5,1.4-3.7,3.2-3.7,5.4c0,2.5,1.3,4.2,4,5.2
		c2.7,1,6.9,1.9,12.8,2.8c6.5,1.1,11.9,2.3,16.1,3.5c4.2,1.2,7.8,3.5,10.9,6.8c3.1,3.3,4.6,7.8,4.6,13.7c0,5-1.5,9.4-4.5,13.2
		c-3,3.9-7.3,6.9-13,9c-5.7,2.1-12.5,3.2-20.3,3.2C390.2,164.9,383.7,164.1,377.4,162.4z"/>
	<path class="st0" d="M497.1,159.8c-2.3,1.7-5.1,3-8.4,3.8c-3.3,0.8-6.8,1.3-10.3,1.3c-9.6,0-17-2.4-22.2-7.3
		c-5.2-4.9-7.7-12-7.7-21.4V66h23.2v19.5h19.8v17.8h-19.8v32.6c0,3.4,0.8,6,2.5,7.8c1.7,1.8,4.1,2.8,7.3,2.8c3.6,0,6.7-1,9.5-3
		L497.1,159.8z"/>
	<path class="st0" d="M543.5,85.5c4.7-2,10.1-3,16.3-3v21.4c-2.6-0.2-4.3-0.3-5.2-0.3c-6.6,0-11.8,1.9-15.6,5.6
		c-3.8,3.7-5.7,9.3-5.7,16.7v37.8h-23.2v-80h22.2v10.6C535.1,90.4,538.8,87.5,543.5,85.5z"/>
	<path class="st0" d="M654.1,83.7v80h-22.2v-9.2c-5.8,6.9-14.1,10.4-25,10.4c-7.5,0-14.3-1.7-20.4-5.1c-6.1-3.4-10.9-8.2-14.3-14.4
		c-3.5-6.2-5.2-13.5-5.2-21.7c0-8.2,1.7-15.5,5.2-21.7c3.5-6.2,8.3-11.1,14.3-14.4c6.1-3.4,12.9-5.1,20.4-5.1
		c10.2,0,18.2,3.2,23.9,9.7v-8.5H654.1z M625.5,139.8c3.9-4,5.8-9.4,5.8-16.1c0-6.7-1.9-12.1-5.8-16.1c-3.9-4-8.7-6-14.6-6
		c-5.9,0-10.9,2-14.7,6c-3.9,4-5.8,9.4-5.8,16.1c0,6.7,1.9,12.1,5.8,16.1c3.9,4,8.8,6,14.7,6C616.8,145.9,621.7,143.9,625.5,139.8z"
		/>
	<path class="st0" d="M743.1,87.6c6.1,3.4,10.9,8.2,14.3,14.4c3.5,6.2,5.2,13.4,5.2,21.6c0,8.2-1.7,15.4-5.2,21.6
		c-3.5,6.2-8.3,11-14.3,14.4c-6.1,3.4-12.9,5.1-20.3,5.1c-10.2,0-18.2-3.2-24.1-9.7v37.3h-23.2V83.7h22.2v9.2
		c5.7-6.9,14.1-10.4,25.1-10.4C730.2,82.5,737,84.2,743.1,87.6z M733.4,139.8c3.8-4,5.7-9.4,5.7-16.1c0-6.7-1.9-12.1-5.7-16.1
		c-3.8-4-8.7-6-14.6-6c-5.9,0-10.8,2-14.6,6c-3.8,4-5.7,9.4-5.7,16.1c0,6.7,1.9,12.1,5.7,16.1c3.8,4,8.7,6,14.6,6
		C724.7,145.9,729.6,143.9,733.4,139.8z"/>
</g>
<path class="st0" d="M2.3,194.5C0.8,193,0,191.3,0,189.2c0-2.1,0.8-3.9,2.3-5.3c1.5-1.4,3.5-2.1,5.9-2.1s4.4,0.7,5.9,2
	c1.5,1.4,2.3,3.1,2.3,5.1c0,2.2-0.8,4-2.3,5.5c-1.5,1.4-3.5,2.2-5.9,2.2S3.8,195.9,2.3,194.5z M1.6,203h13.3v45.7H1.6V203z"/>
<path class="st0" d="M68.7,207.4c3.5,3.4,5.2,8.4,5.2,15.1v26.2H60.7v-24.1c0-3.6-0.8-6.3-2.4-8.1c-1.6-1.8-3.9-2.7-6.9-2.7
	c-3.3,0-6,1-8,3.1c-2,2.1-3,5.1-3,9.2v22.6H27.2V203h12.7v5.4c1.8-1.9,3.9-3.4,6.5-4.5c2.6-1,5.5-1.6,8.6-1.6
	C60.6,202.3,65.2,204,68.7,207.4z"/>
<path class="st0" d="M90.1,247.9c-3.6-0.9-6.5-2.1-8.7-3.5l4.4-9.5c2,1.3,4.5,2.4,7.4,3.2c2.9,0.8,5.7,1.2,8.5,1.2
	c5.6,0,8.4-1.4,8.4-4.2c0-1.3-0.8-2.2-2.3-2.8c-1.5-0.6-3.9-1-7.1-1.4c-3.7-0.6-6.8-1.2-9.3-2c-2.4-0.7-4.5-2-6.3-3.9
	c-1.8-1.9-2.7-4.5-2.7-8c0-2.9,0.8-5.4,2.5-7.7c1.7-2.2,4.1-4,7.3-5.2c3.2-1.2,7-1.9,11.3-1.9c3.2,0,6.4,0.4,9.6,1.1
	s5.8,1.7,7.9,2.9l-4.4,9.4c-4-2.3-8.4-3.4-13.2-3.4c-2.8,0-5,0.4-6.4,1.2c-1.4,0.8-2.1,1.8-2.1,3.1c0,1.4,0.8,2.4,2.3,3
	c1.5,0.6,4,1.1,7.3,1.6c3.7,0.6,6.8,1.3,9.2,2c2.4,0.7,4.4,2,6.2,3.9c1.8,1.9,2.6,4.5,2.6,7.8c0,2.8-0.8,5.4-2.5,7.6
	c-1.7,2.2-4.2,3.9-7.4,5.1c-3.3,1.2-7.1,1.8-11.6,1.8C97.5,249.3,93.8,248.9,90.1,247.9z"/>
<path class="st0" d="M158.5,246.5c-1.3,1-2.9,1.7-4.8,2.2c-1.9,0.5-3.9,0.7-5.9,0.7c-5.5,0-9.7-1.4-12.7-4.2
	c-2.9-2.8-4.4-6.9-4.4-12.2v-40.1H144V204h11.3v10.2H144v18.6c0,1.9,0.5,3.4,1.4,4.5c1,1.1,2.3,1.6,4.2,1.6c2,0,3.9-0.6,5.4-1.7
	L158.5,246.5z"/>
<path class="st0" d="M211,203v45.7h-12.7v-5.3c-3.3,4-8,5.9-14.3,5.9c-4.3,0-8.2-1-11.7-2.9c-3.5-1.9-6.2-4.7-8.2-8.2
	c-2-3.6-3-7.7-3-12.4c0-4.7,1-8.8,3-12.4c2-3.6,4.7-6.3,8.2-8.2c3.5-1.9,7.4-2.9,11.7-2.9c5.8,0,10.4,1.8,13.7,5.5V203H211z
	 M194.7,235c2.2-2.3,3.3-5.4,3.3-9.2c0-3.9-1.1-6.9-3.3-9.2c-2.2-2.3-5-3.4-8.3-3.4c-3.4,0-6.2,1.1-8.4,3.4s-3.3,5.4-3.3,9.2
	c0,3.9,1.1,6.9,3.3,9.2c2.2,2.3,5,3.4,8.4,3.4C189.7,238.5,192.4,237.3,194.7,235z"/>
<path class="st0" d="M264.7,207.4c3.5,3.4,5.2,8.4,5.2,15.1v26.2h-13.3v-24.1c0-3.6-0.8-6.3-2.4-8.1c-1.6-1.8-3.9-2.7-6.9-2.7
	c-3.3,0-6,1-8,3.1c-2,2.1-3,5.1-3,9.2v22.6h-13.3V203h12.7v5.4c1.8-1.9,3.9-3.4,6.5-4.5c2.6-1,5.5-1.6,8.6-1.6
	C256.7,202.3,261.2,204,264.7,207.4z"/>
<path class="st0" d="M309.4,246.5c-1.3,1-2.9,1.7-4.8,2.2c-1.9,0.5-3.9,0.7-5.9,0.7c-5.5,0-9.7-1.4-12.7-4.2
	c-2.9-2.8-4.4-6.9-4.4-12.2v-40.1h13.3V204h11.3v10.2h-11.3v18.6c0,1.9,0.5,3.4,1.4,4.5c1,1.1,2.3,1.6,4.2,1.6c2,0,3.9-0.6,5.4-1.7
	L309.4,246.5z"/>
<g>
	<path id="SVGID_1_" class="st0" d="M808.7,191.3v-126c0-35.2,29.6-65.3,64.9-65.3H1000v129c0,35.2-27.3,62.3-62.5,62.3H808.7z"/>
</g>
<path class="st1" d="M962.4,15.2c0.5-0.5,1.4-0.5,1.9,0l6.1,6.1c0.5,0.5,0.5,1.4,0,1.9l-28.5,28c-0.5,0.5-1.4,0.5-1.9,0L934,45
	c-0.5-0.5-0.5-1.4,0-1.9L962.4,15.2z"/>
<path class="st2" d="M889.6,70.9c13.8-13.5,57.2-32.7,57.2-32.7S927,81.4,913.2,95s-21.9,11-28.5,4.4S875.9,84.5,889.6,70.9z"/>
<path class="st2" d="M895.7,77C909.5,63.5,947,38.3,947,38.3s-25.7,37.1-39.7,50.6c-14,13.5-19.4,13.8-22.6,10.5
	C881.7,96.1,881.9,90.8,895.7,77z"/>
<line class="st3" x1="885" y1="99.4" x2="915.1" y2="69.3"/>
<line class="st3" x1="918.1" y1="66.3" x2="920.9" y2="63.5"/>
<g>
	<path class="st1" d="M852.8,64.9h18.9l-21,63.5h32.7V90.1h17.7v76.3h-17.7v-21.2h-52.3v-14.7L852.8,64.9z"/>
</g>
<path class="st0" d="M847.9,61.4c-1.4,0-2.6,1.2-2.6,2.6v10.3c0,1.4,0.9,2.6,2.1,2.6c1.2,0,2.1-1.2,2.1-2.6l0,0
	c0-1.4,1.2-2.6,2.6-2.6s2.6,1.2,2.6,2.6l0,0c0,1.4,0.7,2.6,1.9,2.6s1.9-1.2,1.9-2.6l0,0c0-1.4,1.2-2.6,2.6-2.6s2.6,1.2,2.6,2.6v18.9
	c0,1.4,0.7,2.6,1.9,2.6c0.9,0,1.9-1.2,1.9-2.6V70.9c0-1.4,1.2-2.6,2.6-2.6s2.6,1.2,2.6,2.6v22.2c0,1.4,0.9,2.6,2.3,2.6
	c1.2,0,2.3-1.2,2.3-2.6V64.2c0-1.4-1.2-2.6-2.6-2.6h-26.6L847.9,61.4L847.9,61.4z"/>
<path class="st0" d="M882.9,87.7c-0.9,0-1.9,0.9-1.9,1.9v7.5c0,0.9,0.7,1.9,1.6,1.9s1.6-0.9,1.6-1.9l0,0c0-0.9,0.9-1.9,1.9-1.9
	s1.9,0.9,1.9,1.9l0,0c0,0.9,0.5,1.9,1.4,1.9c0.9,0,1.4-0.9,1.4-1.9l0,0c0-0.9,0.9-1.9,1.9-1.9c0.9,0,1.9,0.9,1.9,1.9v13.8
	c0,0.9,0.5,1.9,1.4,1.9c0.7,0,1.4-0.9,1.4-1.9V94.5c0-0.9,0.9-1.9,1.9-1.9c0.9,0,1.9,0.9,1.9,1.9v16.3c0,0.9,0.7,1.9,1.6,1.9
	c0.9,0,1.6-0.9,1.6-1.9V89.6c0-0.9-0.9-1.9-1.9-1.9L882.9,87.7L882.9,87.7z"/>
<g>
	<path class="st1" d="M909.3,163.9c0-2.1,1.5-3.5,3.5-3.5c2,0,3.5,1.4,3.5,3.5c0,2-1.5,3.4-3.5,3.4
		C910.8,167.3,909.3,165.8,909.3,163.9z"/>
	<path class="st1" d="M935.2,162.2h5c0.4,0,0.5,0,0.6,0.5c0.1,0.5,0.1,1.2,0.1,1.9c0,0.7,0,1.4-0.1,1.9c-0.1,0.5-0.2,0.5-0.6,0.5
		h-18.4c-0.4,0-0.5,0-0.6-0.5c-0.1-0.5-0.1-1.2-0.1-1.9c0-0.7,0-1.4,0.1-1.9c0.1-0.5,0.2-0.5,0.6-0.5h5.8c0.3,0,0.4-0.1,0.4-0.4v-16
		c0-0.3-0.1-0.4-0.4-0.4h-5.5c-0.4,0-0.5,0-0.6-0.5c-0.1-0.5-0.1-1.2-0.1-1.9c0-0.7,0-1.4,0.1-1.9c0.1-0.5,0.2-0.5,0.6-0.5h11.7
		c0.7,0,1,0.2,1,1v20.1C934.8,162.1,934.9,162.2,935.2,162.2z"/>
	<path class="st1" d="M950.7,141v12.9c0,5.7,0.7,9,4.9,9c1.5,0,2.8-0.4,3.6-1.3v5.6c-1,0.2-2.3,0.3-3.6,0.3
		c-8.9,0-11.8-5.2-11.8-13.6C943.9,147.3,945.6,142.6,950.7,141z M955.6,140.3c8.9,0,11.7,5.2,11.7,13.6c0,6.6-1.7,11.3-6.9,12.9
		v-12.9c0-5.7-0.7-9-4.9-9c-1.6,0-2.9,0.4-3.6,1.3v-5.6C953,140.4,954.4,140.3,955.6,140.3z"/>
</g>
</svg>
